{
    "asset" : {
        "generator" : "Khronos glTF Blender I/O v1.5.17",
        "version" : "2.0"
    },
    "scene" : 0,
    "scenes" : [
        {
            "name" : "Scene",
            "nodes" : [
                0,
                1
            ]
        }
    ],
    "nodes" : [
        {
            "mesh" : 0,
            "name" : "Object049",
            "rotation" : [
                0,
                0.7071068286895752,
                -0.7071067094802856,
                5.338508302088485e-08
            ],
            "scale" : [
                0.00047885585809126496,
                0.00047885585809126496,
                0.00047885585809126496
            ],
            "translation" : [
                -20.238550186157227,
                -10.883586883544922,
                -3.5470902919769287
            ]
        },
        {
            "mesh" : 1,
            "name" : "Cube",
            "rotation" : [
                -0.4978034496307373,
                0.49663856625556946,
                0.4984026849269867,
                -0.507086455821991
            ],
            "scale" : [
                26.405479431152344,
                0.5131556987762451,
                65.88761901855469
            ],
            "translation" : [
                -17.1610164642334,
                -0.17163074016571045,
                -1.4855483770370483
            ]
        }
    ],
    "materials" : [
        {
            "doubleSided" : true,
            "name" : "plintus",
            "pbrMetallicRoughness" : {
                "baseColorFactor" : [
                    0.6151774525642395,
                    0.5924634337425232,
                    0.5747708082199097,
                    1
                ],
                "metallicFactor" : 0,
                "roughnessFactor" : 0.5527864098548889
            }
        },
        {
            "doubleSided" : true,
            "name" : "17 - Default",
            "pbrMetallicRoughness" : {
                "baseColorFactor" : [
                    0.6038274168968201,
                    0.4210531711578369,
                    0.449735164642334,
                    1
                ],
                "metallicFactor" : 0,
                "roughnessFactor" : 0.5527864098548889
            }
        },
        {
            "doubleSided" : true,
            "name" : "Material #2142149236",
            "pbrMetallicRoughness" : {
                "baseColorFactor" : [
                    0.5705611705780029,
                    0.5534276366233826,
                    0.5879999995231628,
                    1
                ],
                "metallicFactor" : 0,
                "roughnessFactor" : 0.858578622341156
            }
        },
        {
            "doubleSided" : true,
            "name" : "glass",
            "pbrMetallicRoughness" : {
                "metallicFactor" : 0,
                "roughnessFactor" : 0.5527864098548889
            }
        },
        {
            "doubleSided" : true,
            "name" : "plintus.001",
            "pbrMetallicRoughness" : {
                "baseColorFactor" : [
                    0.9803925156593323,
                    0.8622764348983765,
                    0.8891175389289856,
                    1
                ],
                "metallicFactor" : 0,
                "roughnessFactor" : 0.5527864098548889
            }
        },
        {
            "doubleSided" : true,
            "name" : "metal nikel",
            "pbrMetallicRoughness" : {
                "baseColorFactor" : [
                    0.0470588281750679,
                    0.0470588281750679,
                    0.0470588281750679,
                    1
                ],
                "metallicFactor" : 0,
                "roughnessFactor" : 0.5527864098548889
            }
        }
    ],
    "meshes" : [
        {
            "name" : "Malla",
            "primitives" : [
                {
                    "attributes" : {
                        "POSITION" : 0,
                        "NORMAL" : 1,
                        "TEXCOORD_0" : 2
                    },
                    "indices" : 3,
                    "material" : 0
                },
                {
                    "attributes" : {
                        "POSITION" : 4,
                        "NORMAL" : 5,
                        "TEXCOORD_0" : 6
                    },
                    "indices" : 7,
                    "material" : 1
                },
                {
                    "attributes" : {
                        "POSITION" : 8,
                        "NORMAL" : 9,
                        "TEXCOORD_0" : 10
                    },
                    "indices" : 11,
                    "material" : 2
                },
                {
                    "attributes" : {
                        "POSITION" : 12,
                        "NORMAL" : 13,
                        "TEXCOORD_0" : 14
                    },
                    "indices" : 15,
                    "material" : 3
                },
                {
                    "attributes" : {
                        "POSITION" : 16,
                        "NORMAL" : 17,
                        "TEXCOORD_0" : 18
                    },
                    "indices" : 19,
                    "material" : 4
                },
                {
                    "attributes" : {
                        "POSITION" : 20,
                        "NORMAL" : 21,
                        "TEXCOORD_0" : 22
                    },
                    "indices" : 23,
                    "material" : 5
                }
            ]
        },
        {
            "name" : "Cube.001",
            "primitives" : [
                {
                    "attributes" : {
                        "POSITION" : 24,
                        "NORMAL" : 25,
                        "TEXCOORD_0" : 26
                    },
                    "indices" : 27,
                    "material" : 0
                }
            ]
        }
    ],
    "accessors" : [
        {
            "bufferView" : 0,
            "componentType" : 5126,
            "count" : 6681,
            "max" : [
                25478.5,
                1501.6533203125,
                31005.974609375
            ],
            "min" : [
                -32897.84375,
                -2037.534912109375,
                -39063.01953125
            ],
            "type" : "VEC3"
        },
        {
            "bufferView" : 1,
            "componentType" : 5126,
            "count" : 6681,
            "type" : "VEC3"
        },
        {
            "bufferView" : 2,
            "componentType" : 5126,
            "count" : 6681,
            "type" : "VEC2"
        },
        {
            "bufferView" : 3,
            "componentType" : 5123,
            "count" : 15528,
            "type" : "SCALAR"
        },
        {
            "bufferView" : 4,
            "componentType" : 5126,
            "count" : 2531,
            "max" : [
                17126.419921875,
                -1.3526668548583984,
                25624.60546875
            ],
            "min" : [
                -30184.15625,
                -392.0375671386719,
                -26555.54296875
            ],
            "type" : "VEC3"
        },
        {
            "bufferView" : 5,
            "componentType" : 5126,
            "count" : 2531,
            "type" : "VEC3"
        },
        {
            "bufferView" : 6,
            "componentType" : 5126,
            "count" : 2531,
            "type" : "VEC2"
        },
        {
            "bufferView" : 7,
            "componentType" : 5123,
            "count" : 4236,
            "type" : "SCALAR"
        },
        {
            "bufferView" : 8,
            "componentType" : 5126,
            "count" : 3364,
            "max" : [
                22664.9296875,
                -1.342203140258789,
                25624.60546875
            ],
            "min" : [
                -30184.15625,
                -392.0385437011719,
                -36487.3359375
            ],
            "type" : "VEC3"
        },
        {
            "bufferView" : 9,
            "componentType" : 5126,
            "count" : 3364,
            "type" : "VEC3"
        },
        {
            "bufferView" : 10,
            "componentType" : 5126,
            "count" : 3364,
            "type" : "VEC2"
        },
        {
            "bufferView" : 11,
            "componentType" : 5123,
            "count" : 10956,
            "type" : "SCALAR"
        },
        {
            "bufferView" : 12,
            "componentType" : 5126,
            "count" : 2128,
            "max" : [
                22559.080078125,
                -54.494354248046875,
                25608.724609375
            ],
            "min" : [
                -30129.2265625,
                -352.081298828125,
                -36381.48828125
            ],
            "type" : "VEC3"
        },
        {
            "bufferView" : 13,
            "componentType" : 5126,
            "count" : 2128,
            "type" : "VEC3"
        },
        {
            "bufferView" : 14,
            "componentType" : 5126,
            "count" : 2128,
            "type" : "VEC2"
        },
        {
            "bufferView" : 15,
            "componentType" : 5123,
            "count" : 2361,
            "type" : "SCALAR"
        },
        {
            "bufferView" : 16,
            "componentType" : 5126,
            "count" : 1555,
            "max" : [
                28186.939453125,
                5757.6826171875,
                31080.23828125
            ],
            "min" : [
                -35837.56640625,
                -5215.78173828125,
                -41987.65625
            ],
            "type" : "VEC3"
        },
        {
            "bufferView" : 17,
            "componentType" : 5126,
            "count" : 1555,
            "type" : "VEC3"
        },
        {
            "bufferView" : 18,
            "componentType" : 5126,
            "count" : 1555,
            "type" : "VEC2"
        },
        {
            "bufferView" : 19,
            "componentType" : 5123,
            "count" : 2892,
            "type" : "SCALAR"
        },
        {
            "bufferView" : 20,
            "componentType" : 5126,
            "count" : 7281,
            "max" : [
                6205.14501953125,
                862.5469360351562,
                9936.8564453125
            ],
            "min" : [
                1681.758544921875,
                -344.44281005859375,
                5478.1484375
            ],
            "type" : "VEC3"
        },
        {
            "bufferView" : 21,
            "componentType" : 5126,
            "count" : 7281,
            "type" : "VEC3"
        },
        {
            "bufferView" : 22,
            "componentType" : 5126,
            "count" : 7281,
            "type" : "VEC2"
        },
        {
            "bufferView" : 23,
            "componentType" : 5123,
            "count" : 37272,
            "type" : "SCALAR"
        },
        {
            "bufferView" : 24,
            "componentType" : 5126,
            "count" : 12663,
            "max" : [
                1,
                1,
                1
            ],
            "min" : [
                -1,
                -1,
                -1
            ],
            "type" : "VEC3"
        },
        {
            "bufferView" : 25,
            "componentType" : 5126,
            "count" : 12663,
            "type" : "VEC3"
        },
        {
            "bufferView" : 26,
            "componentType" : 5126,
            "count" : 12663,
            "type" : "VEC2"
        },
        {
            "bufferView" : 27,
            "componentType" : 5123,
            "count" : 48117,
            "type" : "SCALAR"
        }
    ],
    "bufferViews" : [
        {
            "buffer" : 0,
            "byteLength" : 80172,
            "byteOffset" : 0
        },
        {
            "buffer" : 0,
            "byteLength" : 80172,
            "byteOffset" : 80172
        },
        {
            "buffer" : 0,
            "byteLength" : 53448,
            "byteOffset" : 160344
        },
        {
            "buffer" : 0,
            "byteLength" : 31056,
            "byteOffset" : 213792
        },
        {
            "buffer" : 0,
            "byteLength" : 30372,
            "byteOffset" : 244848
        },
        {
            "buffer" : 0,
            "byteLength" : 30372,
            "byteOffset" : 275220
        },
        {
            "buffer" : 0,
            "byteLength" : 20248,
            "byteOffset" : 305592
        },
        {
            "buffer" : 0,
            "byteLength" : 8472,
            "byteOffset" : 325840
        },
        {
            "buffer" : 0,
            "byteLength" : 40368,
            "byteOffset" : 334312
        },
        {
            "buffer" : 0,
            "byteLength" : 40368,
            "byteOffset" : 374680
        },
        {
            "buffer" : 0,
            "byteLength" : 26912,
            "byteOffset" : 415048
        },
        {
            "buffer" : 0,
            "byteLength" : 21912,
            "byteOffset" : 441960
        },
        {
            "buffer" : 0,
            "byteLength" : 25536,
            "byteOffset" : 463872
        },
        {
            "buffer" : 0,
            "byteLength" : 25536,
            "byteOffset" : 489408
        },
        {
            "buffer" : 0,
            "byteLength" : 17024,
            "byteOffset" : 514944
        },
        {
            "buffer" : 0,
            "byteLength" : 4722,
            "byteOffset" : 531968
        },
        {
            "buffer" : 0,
            "byteLength" : 18660,
            "byteOffset" : 536692
        },
        {
            "buffer" : 0,
            "byteLength" : 18660,
            "byteOffset" : 555352
        },
        {
            "buffer" : 0,
            "byteLength" : 12440,
            "byteOffset" : 574012
        },
        {
            "buffer" : 0,
            "byteLength" : 5784,
            "byteOffset" : 586452
        },
        {
            "buffer" : 0,
            "byteLength" : 87372,
            "byteOffset" : 592236
        },
        {
            "buffer" : 0,
            "byteLength" : 87372,
            "byteOffset" : 679608
        },
        {
            "buffer" : 0,
            "byteLength" : 58248,
            "byteOffset" : 766980
        },
        {
            "buffer" : 0,
            "byteLength" : 74544,
            "byteOffset" : 825228
        },
        {
            "buffer" : 0,
            "byteLength" : 151956,
            "byteOffset" : 899772
        },
        {
            "buffer" : 0,
            "byteLength" : 151956,
            "byteOffset" : 1051728
        },
        {
            "buffer" : 0,
            "byteLength" : 101304,
            "byteOffset" : 1203684
        },
        {
            "buffer" : 0,
            "byteLength" : 96234,
            "byteOffset" : 1304988
        }
    ],
    "buffers" : [
        {
            "byteLength" : 1401224,
            "uri" : "data:application/octet-stream;base64,"
        }
    ]
}
