{
    "asset" : {
        "generator" : "Khronos glTF Blender I/O v1.5.17",
        "version" : "2.0"
    },
    "scene" : 0,
    "scenes" : [
        {
            "name" : "Scene",
            "nodes" : [
                0,
                1
            ]
        }
    ],
    "nodes" : [
        {
            "mesh" : 0,
            "name" : "Object049",
            "rotation" : [
                0,
                0.7071068286895752,
                -0.7071067094802856,
                5.338508302088485e-08
            ],
            "scale" : [
                0.00047885585809126496,
                0.00047885585809126496,
                0.00047885585809126496
            ],
            "translation" : [
                -20.238550186157227,
                -10.883586883544922,
                -3.5470902919769287
            ]
        },
        {
            "mesh" : 1,
            "name" : "Cube",
            "rotation" : [
                -0.4978034496307373,
                0.49663856625556946,
                0.4984026849269867,
                -0.507086455821991
            ],
            "scale" : [
                26.405479431152344,
                0.5131556987762451,
                65.88761901855469
            ],
            "translation" : [
                -17.1610164642334,
                -0.17163074016571045,
                -1.4855483770370483
            ]
        }
    ],
    "materials" : [
        {
            "doubleSided" : true,
            "name" : "plintus",
            "pbrMetallicRoughness" : {
                "baseColorFactor" : [
                    0.9803922176361084,
                    0.9803922176361084,
                    0.9803922176361084,
                    1
                ],
                "metallicFactor" : 0,
                "roughnessFactor" : 0.5527864098548889
            }
        },
        {
            "doubleSided" : true,
            "name" : "17 - Default",
            "pbrMetallicRoughness" : {
                "metallicFactor" : 0,
                "roughnessFactor" : 0.5527864098548889
            }
        },
        {
            "doubleSided" : true,
            "name" : "Material #2142149236",
            "pbrMetallicRoughness" : {
                "baseColorFactor" : [
                    0.5879999995231628,
                    0.5817993879318237,
                    0.5634272694587708,
                    1
                ],
                "metallicFactor" : 0,
                "roughnessFactor" : 0.858578622341156
            }
        },
        {
            "doubleSided" : true,
            "name" : "glass mat",
            "pbrMetallicRoughness" : {
                "baseColorFactor" : [
                    0.9163452982902527,
                    1,
                    0.936859667301178,
                    0.2509803771972656
                ],
                "metallicFactor" : 0,
                "roughnessFactor" : 0.5527864098548889
            }
        },
        {
            "doubleSided" : true,
            "name" : "glass",
            "pbrMetallicRoughness" : {
                "metallicFactor" : 0,
                "roughnessFactor" : 0.5527864098548889
            }
        },
        {
            "doubleSided" : true,
            "name" : "plintus.001",
            "pbrMetallicRoughness" : {
                "baseColorFactor" : [
                    0.9803925156593323,
                    0.8622764348983765,
                    0.8891175389289856,
                    1
                ],
                "metallicFactor" : 0,
                "roughnessFactor" : 0.5527864098548889
            }
        },
        {
            "doubleSided" : true,
            "name" : "metal nikel",
            "pbrMetallicRoughness" : {
                "baseColorFactor" : [
                    0.0470588281750679,
                    0.0470588281750679,
                    0.0470588281750679,
                    1
                ],
                "metallicFactor" : 0,
                "roughnessFactor" : 0.5527864098548889
            }
        }
    ],
    "meshes" : [
        {
            "name" : "Malla",
            "primitives" : [
                {
                    "attributes" : {
                        "POSITION" : 0,
                        "NORMAL" : 1,
                        "TEXCOORD_0" : 2
                    },
                    "indices" : 3,
                    "material" : 0
                },
                {
                    "attributes" : {
                        "POSITION" : 4,
                        "NORMAL" : 5,
                        "TEXCOORD_0" : 6
                    },
                    "indices" : 7,
                    "material" : 1
                },
                {
                    "attributes" : {
                        "POSITION" : 8,
                        "NORMAL" : 9,
                        "TEXCOORD_0" : 10
                    },
                    "indices" : 11,
                    "material" : 2
                },
                {
                    "attributes" : {
                        "POSITION" : 12,
                        "NORMAL" : 13,
                        "TEXCOORD_0" : 14
                    },
                    "indices" : 15,
                    "material" : 3
                },
                {
                    "attributes" : {
                        "POSITION" : 16,
                        "NORMAL" : 17,
                        "TEXCOORD_0" : 18
                    },
                    "indices" : 19,
                    "material" : 4
                },
                {
                    "attributes" : {
                        "POSITION" : 20,
                        "NORMAL" : 21,
                        "TEXCOORD_0" : 22
                    },
                    "indices" : 23,
                    "material" : 5
                },
                {
                    "attributes" : {
                        "POSITION" : 24,
                        "NORMAL" : 25,
                        "TEXCOORD_0" : 26
                    },
                    "indices" : 27,
                    "material" : 6
                }
            ]
        },
        {
            "name" : "Cube.001",
            "primitives" : [
                {
                    "attributes" : {
                        "POSITION" : 28,
                        "NORMAL" : 29,
                        "TEXCOORD_0" : 30
                    },
                    "indices" : 31,
                    "material" : 0
                }
            ]
        }
    ],
    "accessors" : [
        {
            "bufferView" : 0,
            "componentType" : 5126,
            "count" : 5424,
            "max" : [
                25478.5,
                1501.6533203125,
                31005.974609375
            ],
            "min" : [
                -32897.84375,
                -2037.534912109375,
                -39063.01953125
            ],
            "type" : "VEC3"
        },
        {
            "bufferView" : 1,
            "componentType" : 5126,
            "count" : 5424,
            "type" : "VEC3"
        },
        {
            "bufferView" : 2,
            "componentType" : 5126,
            "count" : 5424,
            "type" : "VEC2"
        },
        {
            "bufferView" : 3,
            "componentType" : 5123,
            "count" : 15528,
            "type" : "SCALAR"
        },
        {
            "bufferView" : 4,
            "componentType" : 5126,
            "count" : 1442,
            "max" : [
                17126.419921875,
                -1.3526668548583984,
                25624.60546875
            ],
            "min" : [
                -30184.15625,
                -392.0375671386719,
                -26555.54296875
            ],
            "type" : "VEC3"
        },
        {
            "bufferView" : 5,
            "componentType" : 5126,
            "count" : 1442,
            "type" : "VEC3"
        },
        {
            "bufferView" : 6,
            "componentType" : 5126,
            "count" : 1442,
            "type" : "VEC2"
        },
        {
            "bufferView" : 7,
            "componentType" : 5123,
            "count" : 4236,
            "type" : "SCALAR"
        },
        {
            "bufferView" : 8,
            "componentType" : 5126,
            "count" : 3364,
            "max" : [
                22664.9296875,
                -1.342203140258789,
                25624.60546875
            ],
            "min" : [
                -30184.15625,
                -392.0385437011719,
                -36487.3359375
            ],
            "type" : "VEC3"
        },
        {
            "bufferView" : 9,
            "componentType" : 5126,
            "count" : 3364,
            "type" : "VEC3"
        },
        {
            "bufferView" : 10,
            "componentType" : 5126,
            "count" : 3364,
            "type" : "VEC2"
        },
        {
            "bufferView" : 11,
            "componentType" : 5123,
            "count" : 10956,
            "type" : "SCALAR"
        },
        {
            "bufferView" : 12,
            "componentType" : 5126,
            "count" : 160,
            "max" : [
                22261.1171875,
                -54.52228546142578,
                25310.755859375
            ],
            "min" : [
                -29831.2578125,
                -352.081298828125,
                -18633.494140625
            ],
            "type" : "VEC3"
        },
        {
            "bufferView" : 13,
            "componentType" : 5126,
            "count" : 160,
            "type" : "VEC3"
        },
        {
            "bufferView" : 14,
            "componentType" : 5126,
            "count" : 160,
            "type" : "VEC2"
        },
        {
            "bufferView" : 15,
            "componentType" : 5123,
            "count" : 240,
            "type" : "SCALAR"
        },
        {
            "bufferView" : 16,
            "componentType" : 5126,
            "count" : 1565,
            "max" : [
                22559.080078125,
                -54.494354248046875,
                25608.724609375
            ],
            "min" : [
                -30129.2265625,
                -352.081298828125,
                -36381.48828125
            ],
            "type" : "VEC3"
        },
        {
            "bufferView" : 17,
            "componentType" : 5126,
            "count" : 1565,
            "type" : "VEC3"
        },
        {
            "bufferView" : 18,
            "componentType" : 5126,
            "count" : 1565,
            "type" : "VEC2"
        },
        {
            "bufferView" : 19,
            "componentType" : 5123,
            "count" : 2391,
            "type" : "SCALAR"
        },
        {
            "bufferView" : 20,
            "componentType" : 5126,
            "count" : 1208,
            "max" : [
                28186.939453125,
                5757.6826171875,
                31080.23828125
            ],
            "min" : [
                -35837.56640625,
                -5215.78173828125,
                -41987.65625
            ],
            "type" : "VEC3"
        },
        {
            "bufferView" : 21,
            "componentType" : 5126,
            "count" : 1208,
            "type" : "VEC3"
        },
        {
            "bufferView" : 22,
            "componentType" : 5126,
            "count" : 1208,
            "type" : "VEC2"
        },
        {
            "bufferView" : 23,
            "componentType" : 5123,
            "count" : 2892,
            "type" : "SCALAR"
        },
        {
            "bufferView" : 24,
            "componentType" : 5126,
            "count" : 7236,
            "max" : [
                6205.14501953125,
                862.5469360351562,
                9936.8564453125
            ],
            "min" : [
                1681.758544921875,
                -344.44281005859375,
                5478.1484375
            ],
            "type" : "VEC3"
        },
        {
            "bufferView" : 25,
            "componentType" : 5126,
            "count" : 7236,
            "type" : "VEC3"
        },
        {
            "bufferView" : 26,
            "componentType" : 5126,
            "count" : 7236,
            "type" : "VEC2"
        },
        {
            "bufferView" : 27,
            "componentType" : 5123,
            "count" : 37272,
            "type" : "SCALAR"
        },
        {
            "bufferView" : 28,
            "componentType" : 5126,
            "count" : 10007,
            "max" : [
                1,
                1,
                1
            ],
            "min" : [
                -1,
                -1,
                -1
            ],
            "type" : "VEC3"
        },
        {
            "bufferView" : 29,
            "componentType" : 5126,
            "count" : 10007,
            "type" : "VEC3"
        },
        {
            "bufferView" : 30,
            "componentType" : 5126,
            "count" : 10007,
            "type" : "VEC2"
        },
        {
            "bufferView" : 31,
            "componentType" : 5123,
            "count" : 48996,
            "type" : "SCALAR"
        }
    ],
    "bufferViews" : [
        {
            "buffer" : 0,
            "byteLength" : 65088,
            "byteOffset" : 0
        },
        {
            "buffer" : 0,
            "byteLength" : 65088,
            "byteOffset" : 65088
        },
        {
            "buffer" : 0,
            "byteLength" : 43392,
            "byteOffset" : 130176
        },
        {
            "buffer" : 0,
            "byteLength" : 31056,
            "byteOffset" : 173568
        },
        {
            "buffer" : 0,
            "byteLength" : 17304,
            "byteOffset" : 204624
        },
        {
            "buffer" : 0,
            "byteLength" : 17304,
            "byteOffset" : 221928
        },
        {
            "buffer" : 0,
            "byteLength" : 11536,
            "byteOffset" : 239232
        },
        {
            "buffer" : 0,
            "byteLength" : 8472,
            "byteOffset" : 250768
        },
        {
            "buffer" : 0,
            "byteLength" : 40368,
            "byteOffset" : 259240
        },
        {
            "buffer" : 0,
            "byteLength" : 40368,
            "byteOffset" : 299608
        },
        {
            "buffer" : 0,
            "byteLength" : 26912,
            "byteOffset" : 339976
        },
        {
            "buffer" : 0,
            "byteLength" : 21912,
            "byteOffset" : 366888
        },
        {
            "buffer" : 0,
            "byteLength" : 1920,
            "byteOffset" : 388800
        },
        {
            "buffer" : 0,
            "byteLength" : 1920,
            "byteOffset" : 390720
        },
        {
            "buffer" : 0,
            "byteLength" : 1280,
            "byteOffset" : 392640
        },
        {
            "buffer" : 0,
            "byteLength" : 480,
            "byteOffset" : 393920
        },
        {
            "buffer" : 0,
            "byteLength" : 18780,
            "byteOffset" : 394400
        },
        {
            "buffer" : 0,
            "byteLength" : 18780,
            "byteOffset" : 413180
        },
        {
            "buffer" : 0,
            "byteLength" : 12520,
            "byteOffset" : 431960
        },
        {
            "buffer" : 0,
            "byteLength" : 4782,
            "byteOffset" : 444480
        },
        {
            "buffer" : 0,
            "byteLength" : 14496,
            "byteOffset" : 449264
        },
        {
            "buffer" : 0,
            "byteLength" : 14496,
            "byteOffset" : 463760
        },
        {
            "buffer" : 0,
            "byteLength" : 9664,
            "byteOffset" : 478256
        },
        {
            "buffer" : 0,
            "byteLength" : 5784,
            "byteOffset" : 487920
        },
        {
            "buffer" : 0,
            "byteLength" : 86832,
            "byteOffset" : 493704
        },
        {
            "buffer" : 0,
            "byteLength" : 86832,
            "byteOffset" : 580536
        },
        {
            "buffer" : 0,
            "byteLength" : 57888,
            "byteOffset" : 667368
        },
        {
            "buffer" : 0,
            "byteLength" : 74544,
            "byteOffset" : 725256
        },
        {
            "buffer" : 0,
            "byteLength" : 120084,
            "byteOffset" : 799800
        },
        {
            "buffer" : 0,
            "byteLength" : 120084,
            "byteOffset" : 919884
        },
        {
            "buffer" : 0,
            "byteLength" : 80056,
            "byteOffset" : 1039968
        },
        {
            "buffer" : 0,
            "byteLength" : 97992,
            "byteOffset" : 1120024
        }
    ],
    "buffers" : [
        {
            "byteLength" : 1218016,
            "uri" : "data:application/octet-stream;base64,"
        }
    ]
}
