{
    "asset" : {
        "generator" : "Khronos glTF Blender I/O v1.5.17",
        "version" : "2.0"
    },
    "scene" : 0,
    "scenes" : [
        {
            "name" : "Scene",
            "nodes" : [
                0
            ]
        }
    ],
    "nodes" : [
        {
            "mesh" : 0,
            "name" : "Cube",
            "rotation" : [
                -0.4978034496307373,
                0.49663856625556946,
                0.4984026849269867,
                -0.507086455821991
            ],
            "scale" : [
                26.405479431152344,
                0.5131556987762451,
                65.88761901855469
            ],
            "translation" : [
                -17.1610164642334,
                -0.17163074016571045,
                -1.4855483770370483
            ]
        }
    ],
    "materials" : [
        {
            "doubleSided" : true,
            "name" : "Material.001",
            "pbrMetallicRoughness" : {
                "baseColorFactor" : [
                    0.7110000252723694,
                    0.6206461787223816,
                    0.583020031452179,
                    1
                ],
                "metallicFactor" : 0,
                "roughnessFactor" : 0.5
            }
        }
    ],
    "meshes" : [
        {
            "name" : "Cube.001",
            "primitives" : [
                {
                    "attributes" : {
                        "POSITION" : 0,
                        "NORMAL" : 1,
                        "TEXCOORD_0" : 2
                    },
                    "indices" : 3,
                    "material" : 0
                }
            ]
        }
    ],
    "accessors" : [
        {
            "bufferView" : 0,
            "componentType" : 5126,
            "count" : 5734,
            "max" : [
                1,
                1,
                -0.21951211988925934
            ],
            "min" : [
                -1,
                -1,
                -1
            ],
            "type" : "VEC3"
        },
        {
            "bufferView" : 1,
            "componentType" : 5126,
            "count" : 5734,
            "type" : "VEC3"
        },
        {
            "bufferView" : 2,
            "componentType" : 5126,
            "count" : 5734,
            "type" : "VEC2"
        },
        {
            "bufferView" : 3,
            "componentType" : 5123,
            "count" : 21510,
            "type" : "SCALAR"
        }
    ],
    "bufferViews" : [
        {
            "buffer" : 0,
            "byteLength" : 68808,
            "byteOffset" : 0
        },
        {
            "buffer" : 0,
            "byteLength" : 68808,
            "byteOffset" : 68808
        },
        {
            "buffer" : 0,
            "byteLength" : 45872,
            "byteOffset" : 137616
        },
        {
            "buffer" : 0,
            "byteLength" : 43020,
            "byteOffset" : 183488
        }
    ],
    "buffers" : [
        {
            "byteLength" : 226508,
            "uri" : "data:application/octet-stream;base64,"
        }
    ]
}
