{
    "asset" : {
        "generator" : "Khronos glTF Blender I/O v1.5.17",
        "version" : "2.0"
    },
    "scene" : 0,
    "scenes" : [
        {
            "name" : "Scene",
            "nodes" : [
                0,
                1
            ]
        }
    ],
    "nodes" : [
        {
            "mesh" : 0,
            "name" : "Object049",
            "rotation" : [
                0,
                0.7071068286895752,
                -0.7071067094802856,
                5.338508302088485e-08
            ],
            "scale" : [
                0.00047885585809126496,
                0.00047885585809126496,
                0.00047885585809126496
            ],
            "translation" : [
                -20.238550186157227,
                -10.883586883544922,
                -3.5470902919769287
            ]
        },
        {
            "mesh" : 1,
            "name" : "Cube",
            "rotation" : [
                -0.4978034496307373,
                0.49663856625556946,
                0.4984026849269867,
                -0.507086455821991
            ],
            "scale" : [
                26.405479431152344,
                0.5131556987762451,
                65.88761901855469
            ],
            "translation" : [
                -17.1610164642334,
                -0.17163074016571045,
                -1.4855483770370483
            ]
        }
    ],
    "materials" : [
        {
            "doubleSided" : true,
            "name" : "plintus",
            "pbrMetallicRoughness" : {
                "baseColorFactor" : [
                    0.7110000252723694,
                    0.6206462383270264,
                    0.583020031452179,
                    1
                ],
                "metallicFactor" : 0,
                "roughnessFactor" : 0.5527864098548889
            }
        },
        {
            "doubleSided" : true,
            "name" : "17 - Default",
            "pbrMetallicRoughness" : {
                "baseColorFactor" : [
                    0.09462536871433258,
                    0.014652887359261513,
                    0.014652887359261513,
                    1
                ],
                "metallicFactor" : 0,
                "roughnessFactor" : 0.5527864098548889
            }
        },
        {
            "doubleSided" : true,
            "name" : "Material #2142149236",
            "pbrMetallicRoughness" : {
                "baseColorFactor" : [
                    0.5925781726837158,
                    0.37250450253486633,
                    0.2985776364803314,
                    1
                ],
                "metallicFactor" : 0,
                "roughnessFactor" : 0.4000000059604645
            }
        },
        {
            "doubleSided" : true,
            "name" : "glass",
            "pbrMetallicRoughness" : {
                "baseColorFactor" : [
                    0.7230415344238281,
                    0.6165410280227661,
                    0.5976935029029846,
                    1
                ],
                "metallicFactor" : 0,
                "roughnessFactor" : 0.5527864098548889
            }
        },
        {
            "doubleSided" : true,
            "name" : "plintus.001",
            "pbrMetallicRoughness" : {
                "baseColorFactor" : [
                    0.29600000381469727,
                    0.10291741788387299,
                    0.0950159952044487,
                    1
                ],
                "metallicFactor" : 0,
                "roughnessFactor" : 0.5527864098548889
            }
        },
        {
            "doubleSided" : true,
            "name" : "metal nikel",
            "pbrMetallicRoughness" : {
                "baseColorFactor" : [
                    0.0470588281750679,
                    0.0470588281750679,
                    0.0470588281750679,
                    1
                ],
                "metallicFactor" : 0,
                "roughnessFactor" : 0.4000000059604645
            }
        },
        {
            "doubleSided" : true,
            "name" : "Material.001",
            "pbrMetallicRoughness" : {
                "baseColorFactor" : [
                    0.29600000381469727,
                    0.0950159952044487,
                    0.0950159952044487,
                    1
                ],
                "metallicFactor" : 0,
                "roughnessFactor" : 0.5
            }
        },
        {
            "doubleSided" : true,
            "name" : "Material.002",
            "pbrMetallicRoughness" : {
                "baseColorFactor" : [
                    0.3423822522163391,
                    0.25821903347969055,
                    0.2664637863636017,
                    1
                ],
                "metallicFactor" : 0,
                "roughnessFactor" : 0.5
            }
        }
    ],
    "meshes" : [
        {
            "name" : "Malla",
            "primitives" : [
                {
                    "attributes" : {
                        "POSITION" : 0,
                        "NORMAL" : 1,
                        "TEXCOORD_0" : 2
                    },
                    "indices" : 3,
                    "material" : 0
                },
                {
                    "attributes" : {
                        "POSITION" : 4,
                        "NORMAL" : 5,
                        "TEXCOORD_0" : 6
                    },
                    "indices" : 7,
                    "material" : 1
                },
                {
                    "attributes" : {
                        "POSITION" : 8,
                        "NORMAL" : 9,
                        "TEXCOORD_0" : 10
                    },
                    "indices" : 11,
                    "material" : 2
                },
                {
                    "attributes" : {
                        "POSITION" : 12,
                        "NORMAL" : 13,
                        "TEXCOORD_0" : 14
                    },
                    "indices" : 15,
                    "material" : 3
                },
                {
                    "attributes" : {
                        "POSITION" : 16,
                        "NORMAL" : 17,
                        "TEXCOORD_0" : 18
                    },
                    "indices" : 19,
                    "material" : 4
                },
                {
                    "attributes" : {
                        "POSITION" : 20,
                        "NORMAL" : 21,
                        "TEXCOORD_0" : 22
                    },
                    "indices" : 23,
                    "material" : 5
                },
                {
                    "attributes" : {
                        "POSITION" : 24,
                        "NORMAL" : 25,
                        "TEXCOORD_0" : 26
                    },
                    "indices" : 27,
                    "material" : 6
                },
                {
                    "attributes" : {
                        "POSITION" : 28,
                        "NORMAL" : 29,
                        "TEXCOORD_0" : 30
                    },
                    "indices" : 31,
                    "material" : 7
                }
            ]
        },
        {
            "name" : "Cube.001",
            "primitives" : [
                {
                    "attributes" : {
                        "POSITION" : 32,
                        "NORMAL" : 33,
                        "TEXCOORD_0" : 34
                    },
                    "indices" : 35,
                    "material" : 0
                }
            ]
        }
    ],
    "accessors" : [
        {
            "bufferView" : 0,
            "componentType" : 5126,
            "count" : 6657,
            "max" : [
                25478.5,
                1501.6533203125,
                31005.974609375
            ],
            "min" : [
                -32897.84375,
                -2037.534912109375,
                -39063.01953125
            ],
            "type" : "VEC3"
        },
        {
            "bufferView" : 1,
            "componentType" : 5126,
            "count" : 6657,
            "type" : "VEC3"
        },
        {
            "bufferView" : 2,
            "componentType" : 5126,
            "count" : 6657,
            "type" : "VEC2"
        },
        {
            "bufferView" : 3,
            "componentType" : 5123,
            "count" : 15408,
            "type" : "SCALAR"
        },
        {
            "bufferView" : 4,
            "componentType" : 5126,
            "count" : 2644,
            "max" : [
                17126.419921875,
                -1.3526668548583984,
                30902.318359375
            ],
            "min" : [
                -30184.15625,
                -392.0375671386719,
                -26555.54296875
            ],
            "type" : "VEC3"
        },
        {
            "bufferView" : 5,
            "componentType" : 5126,
            "count" : 2644,
            "type" : "VEC3"
        },
        {
            "bufferView" : 6,
            "componentType" : 5126,
            "count" : 2644,
            "type" : "VEC2"
        },
        {
            "bufferView" : 7,
            "componentType" : 5123,
            "count" : 4296,
            "type" : "SCALAR"
        },
        {
            "bufferView" : 8,
            "componentType" : 5126,
            "count" : 3364,
            "max" : [
                22664.9296875,
                -1.342203140258789,
                25624.60546875
            ],
            "min" : [
                -30184.15625,
                -392.0385437011719,
                -36487.3359375
            ],
            "type" : "VEC3"
        },
        {
            "bufferView" : 9,
            "componentType" : 5126,
            "count" : 3364,
            "type" : "VEC3"
        },
        {
            "bufferView" : 10,
            "componentType" : 5126,
            "count" : 3364,
            "type" : "VEC2"
        },
        {
            "bufferView" : 11,
            "componentType" : 5123,
            "count" : 10836,
            "type" : "SCALAR"
        },
        {
            "bufferView" : 12,
            "componentType" : 5126,
            "count" : 2132,
            "max" : [
                22559.080078125,
                -54.494354248046875,
                25608.724609375
            ],
            "min" : [
                -30129.2265625,
                -352.081298828125,
                -36381.48828125
            ],
            "type" : "VEC3"
        },
        {
            "bufferView" : 13,
            "componentType" : 5126,
            "count" : 2132,
            "type" : "VEC3"
        },
        {
            "bufferView" : 14,
            "componentType" : 5126,
            "count" : 2132,
            "type" : "VEC2"
        },
        {
            "bufferView" : 15,
            "componentType" : 5123,
            "count" : 2361,
            "type" : "SCALAR"
        },
        {
            "bufferView" : 16,
            "componentType" : 5126,
            "count" : 1555,
            "max" : [
                28186.939453125,
                5757.6826171875,
                31080.23828125
            ],
            "min" : [
                -35837.56640625,
                -5215.78173828125,
                -41987.65625
            ],
            "type" : "VEC3"
        },
        {
            "bufferView" : 17,
            "componentType" : 5126,
            "count" : 1555,
            "type" : "VEC3"
        },
        {
            "bufferView" : 18,
            "componentType" : 5126,
            "count" : 1555,
            "type" : "VEC2"
        },
        {
            "bufferView" : 19,
            "componentType" : 5123,
            "count" : 2892,
            "type" : "SCALAR"
        },
        {
            "bufferView" : 20,
            "componentType" : 5126,
            "count" : 7284,
            "max" : [
                6205.14501953125,
                862.5469360351562,
                9936.8564453125
            ],
            "min" : [
                1681.758544921875,
                -344.44281005859375,
                5478.1484375
            ],
            "type" : "VEC3"
        },
        {
            "bufferView" : 21,
            "componentType" : 5126,
            "count" : 7284,
            "type" : "VEC3"
        },
        {
            "bufferView" : 22,
            "componentType" : 5126,
            "count" : 7284,
            "type" : "VEC2"
        },
        {
            "bufferView" : 23,
            "componentType" : 5123,
            "count" : 37272,
            "type" : "SCALAR"
        },
        {
            "bufferView" : 24,
            "componentType" : 5126,
            "count" : 12,
            "max" : [
                1983.29443359375,
                -114.06053924560547,
                24031.77734375
            ],
            "min" : [
                -9634.8671875,
                -114.07596588134766,
                -17293.83984375
            ],
            "type" : "VEC3"
        },
        {
            "bufferView" : 25,
            "componentType" : 5126,
            "count" : 12,
            "type" : "VEC3"
        },
        {
            "bufferView" : 26,
            "componentType" : 5126,
            "count" : 12,
            "type" : "VEC2"
        },
        {
            "bufferView" : 27,
            "componentType" : 5123,
            "count" : 12,
            "type" : "SCALAR"
        },
        {
            "bufferView" : 28,
            "componentType" : 5126,
            "count" : 122,
            "max" : [
                22664.919921875,
                -1.342203140258789,
                25624.60546875
            ],
            "min" : [
                -30184.15625,
                -122.37574768066406,
                -36487.32421875
            ],
            "type" : "VEC3"
        },
        {
            "bufferView" : 29,
            "componentType" : 5126,
            "count" : 122,
            "type" : "VEC3"
        },
        {
            "bufferView" : 30,
            "componentType" : 5126,
            "count" : 122,
            "type" : "VEC2"
        },
        {
            "bufferView" : 31,
            "componentType" : 5123,
            "count" : 168,
            "type" : "SCALAR"
        },
        {
            "bufferView" : 32,
            "componentType" : 5126,
            "count" : 12663,
            "max" : [
                1,
                1,
                1
            ],
            "min" : [
                -1,
                -1,
                -1
            ],
            "type" : "VEC3"
        },
        {
            "bufferView" : 33,
            "componentType" : 5126,
            "count" : 12663,
            "type" : "VEC3"
        },
        {
            "bufferView" : 34,
            "componentType" : 5126,
            "count" : 12663,
            "type" : "VEC2"
        },
        {
            "bufferView" : 35,
            "componentType" : 5123,
            "count" : 48117,
            "type" : "SCALAR"
        }
    ],
    "bufferViews" : [
        {
            "buffer" : 0,
            "byteLength" : 79884,
            "byteOffset" : 0
        },
        {
            "buffer" : 0,
            "byteLength" : 79884,
            "byteOffset" : 79884
        },
        {
            "buffer" : 0,
            "byteLength" : 53256,
            "byteOffset" : 159768
        },
        {
            "buffer" : 0,
            "byteLength" : 30816,
            "byteOffset" : 213024
        },
        {
            "buffer" : 0,
            "byteLength" : 31728,
            "byteOffset" : 243840
        },
        {
            "buffer" : 0,
            "byteLength" : 31728,
            "byteOffset" : 275568
        },
        {
            "buffer" : 0,
            "byteLength" : 21152,
            "byteOffset" : 307296
        },
        {
            "buffer" : 0,
            "byteLength" : 8592,
            "byteOffset" : 328448
        },
        {
            "buffer" : 0,
            "byteLength" : 40368,
            "byteOffset" : 337040
        },
        {
            "buffer" : 0,
            "byteLength" : 40368,
            "byteOffset" : 377408
        },
        {
            "buffer" : 0,
            "byteLength" : 26912,
            "byteOffset" : 417776
        },
        {
            "buffer" : 0,
            "byteLength" : 21672,
            "byteOffset" : 444688
        },
        {
            "buffer" : 0,
            "byteLength" : 25584,
            "byteOffset" : 466360
        },
        {
            "buffer" : 0,
            "byteLength" : 25584,
            "byteOffset" : 491944
        },
        {
            "buffer" : 0,
            "byteLength" : 17056,
            "byteOffset" : 517528
        },
        {
            "buffer" : 0,
            "byteLength" : 4722,
            "byteOffset" : 534584
        },
        {
            "buffer" : 0,
            "byteLength" : 18660,
            "byteOffset" : 539308
        },
        {
            "buffer" : 0,
            "byteLength" : 18660,
            "byteOffset" : 557968
        },
        {
            "buffer" : 0,
            "byteLength" : 12440,
            "byteOffset" : 576628
        },
        {
            "buffer" : 0,
            "byteLength" : 5784,
            "byteOffset" : 589068
        },
        {
            "buffer" : 0,
            "byteLength" : 87408,
            "byteOffset" : 594852
        },
        {
            "buffer" : 0,
            "byteLength" : 87408,
            "byteOffset" : 682260
        },
        {
            "buffer" : 0,
            "byteLength" : 58272,
            "byteOffset" : 769668
        },
        {
            "buffer" : 0,
            "byteLength" : 74544,
            "byteOffset" : 827940
        },
        {
            "buffer" : 0,
            "byteLength" : 144,
            "byteOffset" : 902484
        },
        {
            "buffer" : 0,
            "byteLength" : 144,
            "byteOffset" : 902628
        },
        {
            "buffer" : 0,
            "byteLength" : 96,
            "byteOffset" : 902772
        },
        {
            "buffer" : 0,
            "byteLength" : 24,
            "byteOffset" : 902868
        },
        {
            "buffer" : 0,
            "byteLength" : 1464,
            "byteOffset" : 902892
        },
        {
            "buffer" : 0,
            "byteLength" : 1464,
            "byteOffset" : 904356
        },
        {
            "buffer" : 0,
            "byteLength" : 976,
            "byteOffset" : 905820
        },
        {
            "buffer" : 0,
            "byteLength" : 336,
            "byteOffset" : 906796
        },
        {
            "buffer" : 0,
            "byteLength" : 151956,
            "byteOffset" : 907132
        },
        {
            "buffer" : 0,
            "byteLength" : 151956,
            "byteOffset" : 1059088
        },
        {
            "buffer" : 0,
            "byteLength" : 101304,
            "byteOffset" : 1211044
        },
        {
            "buffer" : 0,
            "byteLength" : 96234,
            "byteOffset" : 1312348
        }
    ],
    "buffers" : [
        {
            "byteLength" : 1408584,
            "uri" : "data:application/octet-stream;base64,"
        }
    ]
}
